ply
format ascii 1.0
element vertex 23
property float x
property float y
property float z
element edge 26
property int vertex1
property int vertex2
end_header
0.12410 -0.21035 1.56964
-0.07980 0.14410 1.31842
-0.19315 -0.48202 1.25548
0.38589 0.18583 0.87229
0.25844 -0.31982 0.84487
0.36948 -0.19238 0.91415
0.19885 -0.14516 1.35472
0.38315 -0.26831 0.96792
0.17686 -0.11352 1.48589
0.32079 -0.30432 1.02045
0.12855 -0.15373 1.50743
0.30499 -0.28396 1.00932
0.12421 -0.15706 1.46714
-0.00660 0.12394 0.28662
-0.09067 -0.26502 0.26800
0.08558 0.19941 -0.44003
-0.02862 -0.14647 -0.49470
0.01129 0.17406 -1.22775
-0.05950 -0.09114 -1.24868
-0.04582 0.12346 -1.36904
-0.11581 -0.08273 -1.38897
0.18579 0.36044 -1.39280
0.18981 -0.15921 -1.40165
1 2
1 3
3 5
5 7
5 9
5 11
7 9
2 4
4 6
6 8
6 10
6 12
8 10
1 13
2 14
13 14
13 15
14 16
15 17
16 18
17 19
18 20
19 21
20 22
17 21
18 22
