ply
format ascii 1.0
element vertex 23
property float x
property float y
property float z
element edge 26
property int vertex1
property int vertex2
end_header
0.33549 -0.12701 1.35484
0.50341 -0.00943 1.20741
0.15089 -0.00981 1.20124
0.73751 -0.01651 1.20619
-0.09033 -0.04500 1.19153
0.96172 -0.07241 1.24834
-0.30604 -0.09618 1.24081
1.01566 -0.08189 1.25011
-0.36827 -0.11173 1.23907
1.02275 -0.08507 1.25873
-0.37183 -0.11909 1.24702
1.00251 -0.08442 1.25548
-0.34778 -0.11361 1.24433
0.41243 -0.04382 0.75685
0.23454 -0.03267 0.75842
0.42245 -0.05878 0.43585
0.23437 -0.06666 0.43648
0.42053 -0.03569 0.09527
0.24374 -0.02240 0.09352
0.40241 0.00105 0.03128
0.26208 0.00775 0.02725
0.43061 -0.15862 0.03559
0.23312 -0.14097 0.01405
1 2
1 3
3 5
5 7
5 9
5 11
7 9
2 4
4 6
6 8
6 10
6 12
8 10
1 13
2 14
13 14
13 15
14 16
15 17
16 18
17 19
18 20
19 21
20 22
17 21
18 22
