ply
format ascii 1.0
element vertex 23
property float x
property float y
property float z
element edge 26
property int vertex1
property int vertex2
end_header
0.44258 -0.11630 1.32720
0.53631 -0.03801 1.18498
0.27002 -0.02096 1.19914
0.47249 -0.21776 1.02411
0.34219 -0.20650 1.02583
0.45968 -0.14179 1.20487
0.34403 -0.16571 1.21152
0.45569 -0.13756 1.24851
0.34852 -0.18129 1.25906
0.47859 -0.11484 1.25951
0.32534 -0.12764 1.27147
0.47812 -0.11368 1.24600
0.32878 -0.13572 1.25319
0.50808 -0.05984 0.73096
0.33750 -0.05035 0.73383
0.49572 -0.07416 0.42992
0.22579 -0.09962 0.43565
0.43809 -0.04081 0.08738
0.24523 -0.09192 0.09086
0.41871 -0.00667 0.02689
0.27678 -0.08074 0.02495
0.44397 -0.15458 0.01091
0.12835 -0.11794 0.03004
1 2
1 3
3 5
5 7
5 9
5 11
7 9
2 4
4 6
6 8
6 10
6 12
8 10
1 13
2 14
13 14
13 15
14 16
15 17
16 18
17 19
18 20
19 21
20 22
17 21
18 22
