ply
format ascii 1.0
element vertex 23
property float x
property float y
property float z
element edge 26
property int vertex1
property int vertex2
end_header
-0.15054 -0.00015 1.79765
0.00086 0.23067 1.52975
0.03869 -0.19480 1.54329
-0.02254 0.26341 1.10784
0.09353 -0.31271 1.16860
-0.09632 0.20914 0.76499
-0.05214 -0.37657 0.83044
-0.08629 0.20561 0.66108
-0.06380 -0.39428 0.74356
-0.12978 0.19459 0.65960
-0.10089 -0.37581 0.74541
-0.13346 0.17082 0.69179
-0.09667 -0.36656 0.77081
-0.00410 0.12239 0.88625
0.03337 -0.14052 0.89190
-0.04008 0.15942 0.37107
0.12689 -0.22444 0.41354
-0.03728 0.19563 -0.13465
0.08523 -0.22900 -0.08407
-0.01471 0.19335 -0.21921
0.04338 -0.21156 -0.16539
-0.16829 0.24347 -0.23946
-0.04338 -0.28118 -0.18577
1 2
1 3
3 5
5 7
5 9
5 11
7 9
2 4
4 6
6 8
6 10
6 12
8 10
1 13
2 14
13 14
13 15
14 16
15 17
16 18
17 19
18 20
19 21
20 22
17 21
18 22
