ply
format ascii 1.0
element vertex 23
property float x
property float y
property float z
element edge 26
property int vertex1
property int vertex2
end_header
0.08079 -0.04441 1.74441
-0.06818 0.33932 1.40021
-0.08153 -0.36174 1.39215
0.06030 0.63249 1.06533
0.06282 -0.65790 1.01883
0.05545 0.41311 0.68495
0.20674 -0.39668 0.67437
0.10736 0.32618 0.59455
0.26138 -0.32190 0.58266
0.09033 0.27881 0.63589
0.23711 -0.28620 0.62022
0.07872 0.29953 0.66269
0.22287 -0.30237 0.64132
0.07790 0.19736 0.36007
0.08110 -0.22912 0.36006
0.09046 0.37305 -0.28493
0.20492 -0.38289 -0.30980
-0.02544 0.43558 -1.02401
0.06383 -0.50595 -1.04268
-0.08380 0.40318 -1.15826
-0.01802 -0.45671 -1.18001
0.24575 0.50643 -1.16187
0.31651 -0.59033 -1.15993
1 2
1 3
3 5
5 7
5 9
5 11
7 9
2 4
4 6
6 8
6 10
6 12
8 10
1 13
2 14
13 14
13 15
14 16
15 17
16 18
17 19
18 20
19 21
20 22
17 21
18 22
