ply
format ascii 1.0
element vertex 23
property float x
property float y
property float z
element edge 26
property int vertex1
property int vertex2
end_header
-0.12049 0.02715 1.80510
0.01915 0.28022 1.59281
0.06942 -0.21011 1.58293
-0.05567 0.60541 1.59440
0.09228 -0.57759 1.55735
-0.19257 0.89776 1.70884
0.02922 -0.89272 1.68899
-0.22357 0.97667 1.72240
0.00549 -0.97650 1.71189
-0.22596 0.98615 1.73919
-0.00532 -0.98446 1.72477
-0.21807 0.93659 1.74012
-0.01113 -0.97419 1.71873
-0.01287 0.15859 0.93308
0.03218 -0.10478 0.93759
-0.07532 0.15401 0.41200
0.09232 -0.14841 0.44707
-0.09196 0.14672 -0.09467
0.02845 -0.10458 -0.03475
-0.05821 0.12455 -0.17364
0.01995 -0.06775 -0.12853
-0.15498 0.14692 -0.17766
-0.04118 -0.12050 -0.14497
1 2
1 3
3 5
5 7
5 9
5 11
7 9
2 4
4 6
6 8
6 10
6 12
8 10
1 13
2 14
13 14
13 15
14 16
15 17
16 18
17 19
18 20
19 21
20 22
17 21
18 22
