ply
format ascii 1.0
element vertex 23
property float x
property float y
property float z
element edge 26
property int vertex1
property int vertex2
end_header
-0.25545 -0.05868 3.09165
0.09838 0.30008 2.48759
-0.02049 -0.51640 2.48365
0.45117 0.55911 1.45156
-0.26068 -0.80943 1.53464
0.02155 0.63976 0.53076
-0.55080 -0.86281 0.67011
-0.01711 0.65305 0.26895
-0.53531 -0.88436 0.43656
-0.10952 0.61920 0.26953
-0.63980 -0.82121 0.44140
-0.12050 0.62249 0.35711
-0.65475 -0.78467 0.51360
0.02135 0.17804 0.88826
-0.06232 -0.48359 0.91430
-0.00247 0.22150 -0.45273
-0.14797 -0.45227 -0.39144
-0.06587 0.12181 -1.79578
-0.13636 -0.41608 -1.71640
-0.12331 0.07918 -1.97981
-0.13314 -0.37881 -1.95911
0.01577 0.20272 -2.06121
-0.10647 -0.37432 -2.08262
1 2
1 3
3 5
5 7
5 9
5 11
7 9
2 4
4 6
6 8
6 10
6 12
8 10
1 13
2 14
13 14
13 15
14 16
15 17
16 18
17 19
18 20
19 21
20 22
17 21
18 22
