# 3D body skeleton exported from MediaPipe multi-view triangulation
# vertices = joints, lines = bones
v 0.32062 -0.15145 1.34973  # nose
v 0.46669 -0.03335 1.16716  # left_shoulder
v 0.16558 -0.03040 1.17458  # right_shoulder
v 0.49167 -0.01407 0.90034  # left_elbow
v 0.13659 -0.03593 0.92019  # right_elbow
v 0.50753 -0.06322 0.69049  # left_wrist
v 0.12218 -0.12475 0.71156  # right_wrist
v 0.51428 -0.05687 0.62768  # left_pinky
v 0.11306 -0.13278 0.65828  # right_pinky
v 0.50678 -0.08424 0.62714  # left_index
v 0.13349 -0.15512 0.65962  # right_index
v 0.49742 -0.08753 0.64561  # left_thumb
v 0.14302 -0.15198 0.67516  # right_thumb
v 0.38937 -0.04798 0.72471  # left_hip
v 0.21026 -0.03906 0.72645  # right_hip
v 0.42737 -0.04107 0.40874  # left_knee
v 0.17524 -0.03267 0.40900  # right_knee
v 0.46986 -0.01078 0.07519  # left_ankle
v 0.14422 -0.01974 0.07429  # right_ankle
v 0.46065 0.02022 0.01049  # left_heel
v 0.14817 0.01174 0.01752  # right_heel
v 0.53255 -0.13531 0.01924  # left_foot_index
v 0.12564 -0.16026 0.01257  # right_foot_index
l 2 3
l 2 4
l 4 6
l 6 8
l 6 10
l 6 12
l 8 10
l 3 5
l 5 7
l 7 9
l 7 11
l 7 13
l 9 11
l 2 14
l 3 15
l 14 15
l 14 16
l 15 17
l 16 18
l 17 19
l 18 20
l 19 21
l 20 22
l 21 23
l 18 22
l 19 23
