ply
format ascii 1.0
element vertex 23
property float x
property float y
property float z
element edge 26
property int vertex1
property int vertex2
end_header
-0.11970 0.16754 1.76637
-0.02303 0.32999 1.55304
0.03842 -0.04803 1.57733
-0.33507 0.12120 1.29348
-0.18174 -0.07377 1.35036
-0.20906 0.08906 1.55104
-0.13471 -0.07922 1.56309
-0.20246 0.08162 1.61540
-0.15748 -0.07664 1.62254
-0.17111 0.11342 1.62964
-0.09203 -0.10596 1.62803
-0.16754 0.11364 1.60675
-0.10016 -0.10276 1.59561
-0.04816 0.29654 0.89245
-0.00247 0.04727 0.89969
-0.10832 0.16634 0.36411
0.01476 -0.15950 0.44882
-0.07894 0.07066 -0.09158
-0.00889 -0.11146 -0.03656
-0.04284 0.07043 -0.16701
-0.00329 -0.05948 -0.12574
-0.20855 0.06859 -0.25537
-0.01149 -0.30631 -0.15289
1 2
1 3
3 5
5 7
5 9
5 11
7 9
2 4
4 6
6 8
6 10
6 12
8 10
1 13
2 14
13 14
13 15
14 16
15 17
16 18
17 19
18 20
19 21
20 22
17 21
18 22
