ply
format ascii 1.0
element vertex 23
property float x
property float y
property float z
element edge 26
property int vertex1
property int vertex2
end_header
0.20763 0.04265 1.58114
-0.04025 0.43380 1.28910
-0.03863 -0.28791 1.27982
0.11435 0.82014 1.22944
-0.04296 -0.73544 1.18776
0.30623 1.20552 1.14554
0.07701 -1.15395 1.17036
0.32077 1.31234 1.10204
0.10602 -1.28087 1.15689
0.34553 1.31559 1.09762
0.12535 -1.28100 1.15514
0.35850 1.26189 1.09617
0.12701 -1.22132 1.14288
0.05251 0.19052 0.20324
0.04671 -0.19016 0.22160
0.05945 0.10218 -0.54918
0.07303 -0.12006 -0.63009
-0.02161 0.06568 -1.31204
-0.00594 -0.15107 -1.38816
-0.08028 0.04899 -1.45022
-0.07721 -0.13592 -1.50579
0.26145 0.10287 -1.46365
0.26110 -0.25357 -1.49848
1 2
1 3
3 5
5 7
5 9
5 11
7 9
2 4
4 6
6 8
6 10
6 12
8 10
1 13
2 14
13 14
13 15
14 16
15 17
16 18
17 19
18 20
19 21
20 22
17 21
18 22
